<?xml version="1.0" encoding="UTF-8" standalone="no"?>
<!-- Created with Inkscape (http://www.inkscape.org/) -->

<svg
   width="210mm"
   height="297mm"
   viewBox="0 0 210 297"
   version="1.1"
   id="svg1"
   inkscape:version="1.3.2 (091e20e, 2023-11-25)"
   sodipodi:docname="stars_logo_pointy.svg"
   xmlns:inkscape="http://www.inkscape.org/namespaces/inkscape"
   xmlns:sodipodi="http://sodipodi.sourceforge.net/DTD/sodipodi-0.dtd"
   xmlns="http://www.w3.org/2000/svg"
   xmlns:svg="http://www.w3.org/2000/svg">
  <sodipodi:namedview
     id="namedview1"
     pagecolor="#ffffff"
     bordercolor="#000000"
     borderopacity="0.25"
     inkscape:showpageshadow="2"
     inkscape:pageopacity="0.0"
     inkscape:pagecheckerboard="0"
     inkscape:deskcolor="#d1d1d1"
     inkscape:document-units="mm"
     inkscape:zoom="0.47745072"
     inkscape:cx="244.00424"
     inkscape:cy="608.43976"
     inkscape:window-width="1920"
     inkscape:window-height="1115"
     inkscape:window-x="2560"
     inkscape:window-y="0"
     inkscape:window-maximized="1"
     inkscape:current-layer="g6" />
  <defs
     id="defs1">
    <filter
       id="mask-powermask-path-effect123_inverse"
       inkscape:label="filtermask-powermask-path-effect123"
       style="color-interpolation-filters:sRGB"
       height="100"
       width="100"
       x="-50"
       y="-50">
      <feColorMatrix
         id="mask-powermask-path-effect123_primitive1"
         values="1"
         type="saturate"
         result="fbSourceGraphic" />
      <feColorMatrix
         id="mask-powermask-path-effect123_primitive2"
         values="-1 0 0 0 1 0 -1 0 0 1 0 0 -1 0 1 0 0 0 1 0 "
         in="fbSourceGraphic" />
    </filter>
    <mask
       maskUnits="userSpaceOnUse"
       id="mask123">
      <path
         id="path123"
         style="fill:none;stroke:#ffffff;stroke-width:9.06899;stroke-linecap:round;stroke-linejoin:round;stroke-opacity:1"
         inkscape:transform-center-x="-0.088953267"
         inkscape:transform-center-y="-6.5316499"
         d="m 161.10733,202.69042 -48.28169,-32.19501 -48.547538,31.79272 15.69941,-55.86742 -45.238684,-36.34697 57.984462,-2.33296 20.5885,-54.256371 20.13695,54.425581 57.96308,2.81468 -45.53914,35.96981 z" />
    </mask>
    <mask
       maskUnits="userSpaceOnUse"
       id="mask123-7">
      <path
         id="path123-5"
         style="fill:none;stroke:#ffffff;stroke-width:9.06899;stroke-linecap:round;stroke-linejoin:round;stroke-opacity:1"
         inkscape:transform-center-x="-0.088953267"
         inkscape:transform-center-y="-6.5316499"
         d="m 161.10733,202.69042 -48.28169,-32.19501 -48.547538,31.79272 15.69941,-55.86742 -45.238684,-36.34697 57.984462,-2.33296 20.5885,-54.256371 20.13695,54.425581 57.96308,2.81468 -45.53914,35.96981 z" />
    </mask>
    <mask
       maskUnits="userSpaceOnUse"
       id="mask123-7-1">
      <path
         id="path123-5-8"
         style="fill:none;stroke:#ffffff;stroke-width:9.06899;stroke-linecap:round;stroke-linejoin:round;stroke-opacity:1"
         inkscape:transform-center-x="-0.088953267"
         inkscape:transform-center-y="-6.5316499"
         d="m 161.10733,202.69042 -48.28169,-32.19501 -48.547538,31.79272 15.69941,-55.86742 -45.238684,-36.34697 57.984462,-2.33296 20.5885,-54.256371 20.13695,54.425581 57.96308,2.81468 -45.53914,35.96981 z" />
    </mask>
    <mask
       maskUnits="userSpaceOnUse"
       id="mask4">
      <path
         id="path4"
         style="opacity:1;fill:#ffffff;fill-opacity:1;stroke:none;stroke-width:0.34225;stroke-opacity:1"
         d="M 21.611229,48.553466 19.642895,229.58969 H 202.83895 l 0.0234,-198.235327 z m 63.025636,42.43177 c 0.88469,0.03431 1.79244,0.334045 2.56677,0.906404 l 15.564415,11.50472 c 1.7699,1.30825 2.15257,3.53114 0.85783,4.9842 -1.29474,1.45306 -3.762055,1.56973 -5.531955,0.26148 L 82.529495,97.137315 c -1.7699,-1.308249 -2.15257,-3.531132 -0.85783,-4.984192 0.7283,-0.817347 1.82773,-1.212006 2.9652,-1.167887 z m 58.588155,0.997355 c 0.44845,-0.0244 0.9075,0.05367 1.35444,0.24598 1.78772,0.769247 2.6782,3.072975 1.99626,5.165576 l -5.99705,18.402493 c -0.68195,2.0926 -2.6704,3.15773 -4.45813,2.38849 -1.78773,-0.76926 -2.67769,-3.07298 -1.99574,-5.16558 l 5.99705,-18.402495 c 0.51146,-1.569448 1.75782,-2.561265 3.10317,-2.634464 z M 81.599835,135.01821 c 1.04271,0.0389 1.99295,0.55128 2.54869,1.49448 0.98796,1.6768 0.34521,4.06142 -1.44126,5.34696 l -15.71015,11.30473 c -1.78647,1.28554 -4.02051,0.9709 -5.00848,-0.7059 -0.98798,-1.6768 -0.34469,-4.06194 1.44177,-5.34747 l 15.71015,-11.30474 c 0.78158,-0.56242 1.6483,-0.81835 2.45928,-0.78806 z m 78.889245,13.66945 c 2.20091,-0.001 3.83126,1.55771 3.65507,3.4959 -0.17618,1.93823 -2.08978,3.49962 -4.29069,3.50108 l -19.35489,0.0129 c -2.20092,0.001 -3.83126,-1.55769 -3.65508,-3.49591 0.17618,-1.93822 2.08978,-3.49961 4.2907,-3.50107 z m -55.06228,14.61357 c 1.67814,0.008 3.33292,1.2738 3.91553,3.10937 l 5.85545,18.44797 c 0.66583,2.09779 -0.32834,4.12209 -2.22932,4.53926 -1.90098,0.41717 -3.96748,-0.93562 -4.63331,-3.03341 l -5.85545,-18.44797 c -0.66583,-2.09777 0.32834,-4.12261 2.22932,-4.53977 0.23762,-0.0521 0.47805,-0.0766 0.71778,-0.0754 z"
         sodipodi:nodetypes="cccccsccsccssssscsccsscccsccscsccsccsccsccss"
         mask="url(#mask123-7-1)"
         transform="translate(-159.54772,42.366282)" />
    </mask>
    <mask
       maskUnits="userSpaceOnUse"
       id="mask4-9">
      <path
         id="path4-7"
         style="opacity:1;fill:#ffffff;fill-opacity:1;stroke:none;stroke-width:0.34225;stroke-opacity:1"
         d="M 21.611229,48.553466 19.642895,229.58969 H 202.83895 l 0.0234,-198.235327 z m 63.025636,42.43177 c 0.88469,0.03431 1.79244,0.334045 2.56677,0.906404 l 15.564415,11.50472 c 1.7699,1.30825 2.15257,3.53114 0.85783,4.9842 -1.29474,1.45306 -3.762055,1.56973 -5.531955,0.26148 L 82.529495,97.137315 c -1.7699,-1.308249 -2.15257,-3.531132 -0.85783,-4.984192 0.7283,-0.817347 1.82773,-1.212006 2.9652,-1.167887 z m 58.588155,0.997355 c 0.44845,-0.0244 0.9075,0.05367 1.35444,0.24598 1.78772,0.769247 2.6782,3.072975 1.99626,5.165576 l -5.99705,18.402493 c -0.68195,2.0926 -2.6704,3.15773 -4.45813,2.38849 -1.78773,-0.76926 -2.67769,-3.07298 -1.99574,-5.16558 l 5.99705,-18.402495 c 0.51146,-1.569448 1.75782,-2.561265 3.10317,-2.634464 z M 81.599835,135.01821 c 1.04271,0.0389 1.99295,0.55128 2.54869,1.49448 0.98796,1.6768 0.34521,4.06142 -1.44126,5.34696 l -15.71015,11.30473 c -1.78647,1.28554 -4.02051,0.9709 -5.00848,-0.7059 -0.98798,-1.6768 -0.34469,-4.06194 1.44177,-5.34747 l 15.71015,-11.30474 c 0.78158,-0.56242 1.6483,-0.81835 2.45928,-0.78806 z m 78.889245,13.66945 c 2.20091,-0.001 3.83126,1.55771 3.65507,3.4959 -0.17618,1.93823 -2.08978,3.49962 -4.29069,3.50108 l -19.35489,0.0129 c -2.20092,0.001 -3.83126,-1.55769 -3.65508,-3.49591 0.17618,-1.93822 2.08978,-3.49961 4.2907,-3.50107 z m -55.06228,14.61357 c 1.67814,0.008 3.33292,1.2738 3.91553,3.10937 l 5.85545,18.44797 c 0.66583,2.09779 -0.32834,4.12209 -2.22932,4.53926 -1.90098,0.41717 -3.96748,-0.93562 -4.63331,-3.03341 l -5.85545,-18.44797 c -0.66583,-2.09777 0.32834,-4.12261 2.22932,-4.53977 0.23762,-0.0521 0.47805,-0.0766 0.71778,-0.0754 z"
         sodipodi:nodetypes="cccccsccsccssssscsccsscccsccscsccsccsccsccss"
         mask="url(#mask123-7-1-3)"
         transform="translate(-159.54772,42.366282)" />
    </mask>
    <mask
       maskUnits="userSpaceOnUse"
       id="mask123-7-1-3">
      <path
         id="path123-5-8-6"
         style="fill:none;stroke:#ffffff;stroke-width:9.06899;stroke-linecap:round;stroke-linejoin:round;stroke-opacity:1"
         inkscape:transform-center-x="-0.088953267"
         inkscape:transform-center-y="-6.5316499"
         d="m 161.10733,202.69042 -48.28169,-32.19501 -48.547538,31.79272 15.69941,-55.86742 -45.238684,-36.34697 57.984462,-2.33296 20.5885,-54.256371 20.13695,54.425581 57.96308,2.81468 -45.53914,35.96981 z" />
    </mask>
    <mask
       maskUnits="userSpaceOnUse"
       id="mask4-1">
      <path
         id="path4-9"
         style="opacity:1;fill:#ffffff;fill-opacity:1;stroke:none;stroke-width:0.34225;stroke-opacity:1"
         d="M 21.611229,48.553466 19.642895,229.58969 H 202.83895 l 0.0234,-198.235327 z m 63.025636,42.43177 c 0.88469,0.03431 1.79244,0.334045 2.56677,0.906404 l 15.564415,11.50472 c 1.7699,1.30825 2.15257,3.53114 0.85783,4.9842 -1.29474,1.45306 -3.762055,1.56973 -5.531955,0.26148 L 82.529495,97.137315 c -1.7699,-1.308249 -2.15257,-3.531132 -0.85783,-4.984192 0.7283,-0.817347 1.82773,-1.212006 2.9652,-1.167887 z m 58.588155,0.997355 c 0.44845,-0.0244 0.9075,0.05367 1.35444,0.24598 1.78772,0.769247 2.6782,3.072975 1.99626,5.165576 l -5.99705,18.402493 c -0.68195,2.0926 -2.6704,3.15773 -4.45813,2.38849 -1.78773,-0.76926 -2.67769,-3.07298 -1.99574,-5.16558 l 5.99705,-18.402495 c 0.51146,-1.569448 1.75782,-2.561265 3.10317,-2.634464 z M 81.599835,135.01821 c 1.04271,0.0389 1.99295,0.55128 2.54869,1.49448 0.98796,1.6768 0.34521,4.06142 -1.44126,5.34696 l -15.71015,11.30473 c -1.78647,1.28554 -4.02051,0.9709 -5.00848,-0.7059 -0.98798,-1.6768 -0.34469,-4.06194 1.44177,-5.34747 l 15.71015,-11.30474 c 0.78158,-0.56242 1.6483,-0.81835 2.45928,-0.78806 z m 78.889245,13.66945 c 2.20091,-0.001 3.83126,1.55771 3.65507,3.4959 -0.17618,1.93823 -2.08978,3.49962 -4.29069,3.50108 l -19.35489,0.0129 c -2.20092,0.001 -3.83126,-1.55769 -3.65508,-3.49591 0.17618,-1.93822 2.08978,-3.49961 4.2907,-3.50107 z m -55.06228,14.61357 c 1.67814,0.008 3.33292,1.2738 3.91553,3.10937 l 5.85545,18.44797 c 0.66583,2.09779 -0.32834,4.12209 -2.22932,4.53926 -1.90098,0.41717 -3.96748,-0.93562 -4.63331,-3.03341 l -5.85545,-18.44797 c -0.66583,-2.09777 0.32834,-4.12261 2.22932,-4.53977 0.23762,-0.0521 0.47805,-0.0766 0.71778,-0.0754 z"
         sodipodi:nodetypes="cccccsccsccssssscsccsscccsccscsccsccsccsccss"
         mask="url(#mask123-7-1-4)"
         transform="translate(-159.54772,42.366282)" />
    </mask>
    <mask
       maskUnits="userSpaceOnUse"
       id="mask123-7-1-4">
      <path
         id="path123-5-8-7"
         style="fill:none;stroke:#ffffff;stroke-width:9.06899;stroke-linecap:round;stroke-linejoin:round;stroke-opacity:1"
         inkscape:transform-center-x="-0.088953267"
         inkscape:transform-center-y="-6.5316499"
         d="m 161.10733,202.69042 -48.28169,-32.19501 -48.547538,31.79272 15.69941,-55.86742 -45.238684,-36.34697 57.984462,-2.33296 20.5885,-54.256371 20.13695,54.425581 57.96308,2.81468 -45.53914,35.96981 z" />
    </mask>
    <mask
       maskUnits="userSpaceOnUse"
       id="mask4-1-3">
      <path
         id="path4-9-6"
         style="opacity:1;fill:#ffffff;fill-opacity:1;stroke:none;stroke-width:0.34225;stroke-opacity:1"
         d="M 21.611229,48.553466 19.642895,229.58969 H 202.83895 l 0.0234,-198.235327 z m 63.025636,42.43177 c 0.88469,0.03431 1.79244,0.334045 2.56677,0.906404 l 15.564415,11.50472 c 1.7699,1.30825 2.15257,3.53114 0.85783,4.9842 -1.29474,1.45306 -3.762055,1.56973 -5.531955,0.26148 L 82.529495,97.137315 c -1.7699,-1.308249 -2.15257,-3.531132 -0.85783,-4.984192 0.7283,-0.817347 1.82773,-1.212006 2.9652,-1.167887 z m 58.588155,0.997355 c 0.44845,-0.0244 0.9075,0.05367 1.35444,0.24598 1.78772,0.769247 2.6782,3.072975 1.99626,5.165576 l -5.99705,18.402493 c -0.68195,2.0926 -2.6704,3.15773 -4.45813,2.38849 -1.78773,-0.76926 -2.67769,-3.07298 -1.99574,-5.16558 l 5.99705,-18.402495 c 0.51146,-1.569448 1.75782,-2.561265 3.10317,-2.634464 z M 81.599835,135.01821 c 1.04271,0.0389 1.99295,0.55128 2.54869,1.49448 0.98796,1.6768 0.34521,4.06142 -1.44126,5.34696 l -15.71015,11.30473 c -1.78647,1.28554 -4.02051,0.9709 -5.00848,-0.7059 -0.98798,-1.6768 -0.34469,-4.06194 1.44177,-5.34747 l 15.71015,-11.30474 c 0.78158,-0.56242 1.6483,-0.81835 2.45928,-0.78806 z m 78.889245,13.66945 c 2.20091,-0.001 3.83126,1.55771 3.65507,3.4959 -0.17618,1.93823 -2.08978,3.49962 -4.29069,3.50108 l -19.35489,0.0129 c -2.20092,0.001 -3.83126,-1.55769 -3.65508,-3.49591 0.17618,-1.93822 2.08978,-3.49961 4.2907,-3.50107 z m -55.06228,14.61357 c 1.67814,0.008 3.33292,1.2738 3.91553,3.10937 l 5.85545,18.44797 c 0.66583,2.09779 -0.32834,4.12209 -2.22932,4.53926 -1.90098,0.41717 -3.96748,-0.93562 -4.63331,-3.03341 l -5.85545,-18.44797 c -0.66583,-2.09777 0.32834,-4.12261 2.22932,-4.53977 0.23762,-0.0521 0.47805,-0.0766 0.71778,-0.0754 z"
         sodipodi:nodetypes="cccccsccsccssssscsccsscccsccscsccsccsccsccss"
         mask="url(#mask123-7-1-4-1)"
         transform="translate(-159.54772,42.366282)" />
    </mask>
    <mask
       maskUnits="userSpaceOnUse"
       id="mask123-7-1-4-1">
      <path
         id="path123-5-8-7-0"
         style="fill:none;stroke:#ffffff;stroke-width:9.06899;stroke-linecap:round;stroke-linejoin:round;stroke-opacity:1"
         inkscape:transform-center-x="-0.088953267"
         inkscape:transform-center-y="-6.5316499"
         d="m 161.10733,202.69042 -48.28169,-32.19501 -48.547538,31.79272 15.69941,-55.86742 -45.238684,-36.34697 57.984462,-2.33296 20.5885,-54.256371 20.13695,54.425581 57.96308,2.81468 -45.53914,35.96981 z" />
    </mask>
    <mask
       maskUnits="userSpaceOnUse"
       id="mask4-1-3-6">
      <path
         id="path4-9-6-1"
         style="opacity:1;fill:#ffffff;fill-opacity:1;stroke:none;stroke-width:0.34225;stroke-opacity:1"
         d="M 21.611229,48.553466 19.642895,229.58969 H 202.83895 l 0.0234,-198.235327 z m 63.025636,42.43177 c 0.88469,0.03431 1.79244,0.334045 2.56677,0.906404 l 15.564415,11.50472 c 1.7699,1.30825 2.15257,3.53114 0.85783,4.9842 -1.29474,1.45306 -3.762055,1.56973 -5.531955,0.26148 L 82.529495,97.137315 c -1.7699,-1.308249 -2.15257,-3.531132 -0.85783,-4.984192 0.7283,-0.817347 1.82773,-1.212006 2.9652,-1.167887 z m 58.588155,0.997355 c 0.44845,-0.0244 0.9075,0.05367 1.35444,0.24598 1.78772,0.769247 2.6782,3.072975 1.99626,5.165576 l -5.99705,18.402493 c -0.68195,2.0926 -2.6704,3.15773 -4.45813,2.38849 -1.78773,-0.76926 -2.67769,-3.07298 -1.99574,-5.16558 l 5.99705,-18.402495 c 0.51146,-1.569448 1.75782,-2.561265 3.10317,-2.634464 z M 81.599835,135.01821 c 1.04271,0.0389 1.99295,0.55128 2.54869,1.49448 0.98796,1.6768 0.34521,4.06142 -1.44126,5.34696 l -15.71015,11.30473 c -1.78647,1.28554 -4.02051,0.9709 -5.00848,-0.7059 -0.98798,-1.6768 -0.34469,-4.06194 1.44177,-5.34747 l 15.71015,-11.30474 c 0.78158,-0.56242 1.6483,-0.81835 2.45928,-0.78806 z m 78.889245,13.66945 c 2.20091,-0.001 3.83126,1.55771 3.65507,3.4959 -0.17618,1.93823 -2.08978,3.49962 -4.29069,3.50108 l -19.35489,0.0129 c -2.20092,0.001 -3.83126,-1.55769 -3.65508,-3.49591 0.17618,-1.93822 2.08978,-3.49961 4.2907,-3.50107 z m -55.06228,14.61357 c 1.67814,0.008 3.33292,1.2738 3.91553,3.10937 l 5.85545,18.44797 c 0.66583,2.09779 -0.32834,4.12209 -2.22932,4.53926 -1.90098,0.41717 -3.96748,-0.93562 -4.63331,-3.03341 l -5.85545,-18.44797 c -0.66583,-2.09777 0.32834,-4.12261 2.22932,-4.53977 0.23762,-0.0521 0.47805,-0.0766 0.71778,-0.0754 z"
         sodipodi:nodetypes="cccccsccsccssssscsccsscccsccscsccsccsccsccss"
         mask="url(#mask123-7-1-4-1-5)"
         transform="translate(-159.54772,42.366282)" />
    </mask>
    <mask
       maskUnits="userSpaceOnUse"
       id="mask123-7-1-4-1-5">
      <path
         id="path123-5-8-7-0-5"
         style="fill:none;stroke:#ffffff;stroke-width:9.06899;stroke-linecap:round;stroke-linejoin:round;stroke-opacity:1"
         inkscape:transform-center-x="-0.088953267"
         inkscape:transform-center-y="-6.5316499"
         d="m 161.10733,202.69042 -48.28169,-32.19501 -48.547538,31.79272 15.69941,-55.86742 -45.238684,-36.34697 57.984462,-2.33296 20.5885,-54.256371 20.13695,54.425581 57.96308,2.81468 -45.53914,35.96981 z" />
    </mask>
  </defs>
  <g
     inkscape:label="Layer 1"
     inkscape:groupmode="layer"
     id="layer1">
    <g
       id="g3">
      <g
         id="g6"
         transform="translate(-6.2213884,5.8385104)">
        <rect
           style="opacity:1;fill:#387ca2;fill-opacity:1;stroke:none;stroke-width:0.320617"
           id="rect3"
           width="47.50296"
           height="54.719772"
           x="-68.560982"
           y="90.120018"
           mask="url(#mask4)"
           transform="translate(150.35413,26.615884)" />
        <g
           id="g123"
           transform="translate(-22.289315,-53.225449)">
          <path
             id="rect120"
             style="opacity:1;fill:#387ca2;fill-opacity:1;stroke:none;stroke-width:0.34225;stroke-opacity:1"
             d="M 21.611229,48.553466 19.642895,229.58969 H 202.83895 l 0.0234,-198.235327 z m 63.025636,42.43177 c 0.88469,0.03431 1.79244,0.334045 2.56677,0.906404 l 15.564415,11.50472 c 1.7699,1.30825 2.15257,3.53114 0.85783,4.9842 -1.29474,1.45306 -3.762055,1.56973 -5.531955,0.26148 L 82.529495,97.137315 c -1.7699,-1.308249 -2.15257,-3.531132 -0.85783,-4.984192 0.7283,-0.817347 1.82773,-1.212006 2.9652,-1.167887 z m 58.588155,0.997355 c 0.44845,-0.0244 0.9075,0.05367 1.35444,0.24598 1.78772,0.769247 2.6782,3.072975 1.99626,5.165576 l -5.99705,18.402493 c -0.68195,2.0926 -2.6704,3.15773 -4.45813,2.38849 -1.78773,-0.76926 -2.67769,-3.07298 -1.99574,-5.16558 l 5.99705,-18.402495 c 0.51146,-1.569448 1.75782,-2.561265 3.10317,-2.634464 z M 81.599835,135.01821 c 1.04271,0.0389 1.99295,0.55128 2.54869,1.49448 0.98796,1.6768 0.34521,4.06142 -1.44126,5.34696 l -15.71015,11.30473 c -1.78647,1.28554 -4.02051,0.9709 -5.00848,-0.7059 -0.98798,-1.6768 -0.34469,-4.06194 1.44177,-5.34747 l 15.71015,-11.30474 c 0.78158,-0.56242 1.6483,-0.81835 2.45928,-0.78806 z m 78.889245,13.66945 c 2.20091,-0.001 3.83126,1.55771 3.65507,3.4959 -0.17618,1.93823 -2.08978,3.49962 -4.29069,3.50108 l -19.35489,0.0129 c -2.20092,0.001 -3.83126,-1.55769 -3.65508,-3.49591 0.17618,-1.93822 2.08978,-3.49961 4.2907,-3.50107 z m -55.06228,14.61357 c 1.67814,0.008 3.33292,1.2738 3.91553,3.10937 l 5.85545,18.44797 c 0.66583,2.09779 -0.32834,4.12209 -2.22932,4.53926 -1.90098,0.41717 -3.96748,-0.93562 -4.63331,-3.03341 l -5.85545,-18.44797 c -0.66583,-2.09777 0.32834,-4.12261 2.22932,-4.53977 0.23762,-0.0521 0.47805,-0.0766 0.71778,-0.0754 z"
             sodipodi:nodetypes="cccccsccsccssssscsccsscccsccscsccsccsccsccss"
             mask="url(#mask123)" />
          <rect
             style="fill:#ffdd55;stroke:#387ca2;stroke-width:9.06899;stroke-linecap:round;stroke-linejoin:round;stroke-opacity:1"
             id="rect1"
             width="19.025837"
             height="0.019528531"
             x="-66.408043"
             y="158.96075"
             ry="0"
             transform="rotate(-73.763415)" />
          <rect
             style="fill:none;stroke:#387ca2;stroke-width:9.06899;stroke-linecap:round;stroke-linejoin:round"
             id="rect1-7"
             width="19.025837"
             height="0.019528531"
             x="151.35939"
             y="22.418121"
             ry="0"
             transform="rotate(31.467115)" />
          <rect
             style="fill:#ffdd55;stroke:#387ca2;stroke-width:9.06899;stroke-linecap:round;stroke-linejoin:round;stroke-opacity:1"
             id="rect1-6"
             width="19.025837"
             height="0.019528531"
             x="140.99481"
             y="151.99567"
             ry="0"
             transform="rotate(-1.853465)" />
          <rect
             style="fill:none;stroke:#387ca2;stroke-width:9.06899;stroke-linecap:round;stroke-linejoin:round;stroke-opacity:1"
             id="rect1-7-5"
             width="19.025837"
             height="0.019528531"
             x="90.153534"
             y="-175.87029"
             ry="0"
             transform="rotate(103.37706)" />
          <rect
             style="fill:#ffdd55;stroke:#387ca2;stroke-width:9.06899;stroke-linecap:round;stroke-linejoin:round;stroke-opacity:1"
             id="rect1-6-2"
             width="19.025837"
             height="0.019528531"
             x="198.36873"
             y="-47.874996"
             ry="0"
             transform="rotate(70.269585)" />
          <rect
             style="fill:none;stroke:#387ca2;stroke-width:9.06899;stroke-linecap:round;stroke-linejoin:round;stroke-opacity:1"
             id="rect1-7-5-5"
             width="19.025837"
             height="0.019528531"
             x="-117.76931"
             y="-178.72237"
             ry="0"
             transform="rotate(175.50011)" />
          <rect
             style="fill:#ffdd55;stroke:#387ca2;stroke-width:9.06899;stroke-linecap:round;stroke-linejoin:round;stroke-opacity:1"
             id="rect1-6-2-7"
             width="19.025837"
             height="0.019528531"
             x="26.603642"
             y="-164.07729"
             ry="0"
             transform="rotate(142.17549)" />
          <rect
             style="fill:none;stroke:#387ca2;stroke-width:9.06899;stroke-linecap:round;stroke-linejoin:round;stroke-opacity:1"
             id="rect1-7-5-5-8"
             width="19.025837"
             height="0.019528531"
             x="-184.76697"
             y="17.536497"
             ry="0"
             transform="rotate(-112.59398)" />
          <rect
             style="fill:#ffdd55;stroke:#387ca2;stroke-width:9.06899;stroke-linecap:round;stroke-linejoin:round;stroke-opacity:1"
             id="rect1-6-2-7-4"
             width="19.025837"
             height="0.019528531"
             x="-137.43617"
             y="-36.007523"
             ry="0"
             transform="rotate(-145.72493)" />
          <rect
             style="fill:none;stroke:#387ca2;stroke-width:9.06899;stroke-linecap:round;stroke-linejoin:round;stroke-opacity:1"
             id="rect1-7-5-5-8-9"
             width="19.025837"
             height="0.019528531"
             x="-18.101616"
             y="142.17032"
             ry="0"
             transform="rotate(-40.494399)" />
        </g>
        <rect
           style="fill:#ffdd55;stroke:#387ca2;stroke-width:9.06899;stroke-linecap:round;stroke-linejoin:round;stroke-opacity:1"
           id="rect1-2"
           width="19.025837"
           height="0.019528531"
           x="-135.06383"
           y="169.46536"
           ry="0"
           transform="rotate(-73.763415)" />
        <rect
           style="fill:none;stroke:#387ca2;stroke-width:9.06899;stroke-linecap:round;stroke-linejoin:round"
           id="rect1-7-9"
           width="19.025837"
           height="0.019528531"
           x="179.53114"
           y="85.902893"
           ry="0"
           transform="rotate(31.467115)" />
        <rect
           style="fill:#ffdd55;stroke:#387ca2;stroke-width:9.06899;stroke-linecap:round;stroke-linejoin:round;stroke-opacity:1"
           id="rect1-6-1"
           width="19.025837"
           height="0.019528531"
           x="129.66176"
           y="220.51958"
           ry="0"
           transform="rotate(-1.853465)" />
        <rect
           style="fill:none;stroke:#387ca2;stroke-width:9.06899;stroke-linecap:round;stroke-linejoin:round;stroke-opacity:1"
           id="rect1-7-5-2"
           width="19.025837"
           height="0.019528531"
           x="159.24788"
           y="-182.93675"
           ry="0"
           transform="rotate(103.37706)" />
        <rect
           style="fill:#ffdd55;stroke:#387ca2;stroke-width:9.06899;stroke-linecap:round;stroke-linejoin:round;stroke-opacity:1"
           id="rect1-6-2-70"
           width="19.025837"
           height="0.019528531"
           x="260.10522"
           y="-16.054089"
           ry="0"
           transform="rotate(70.269585)" />
        <rect
           style="fill:none;stroke:#387ca2;stroke-width:9.06899;stroke-linecap:round;stroke-linejoin:round;stroke-opacity:1"
           id="rect1-7-5-5-9"
           width="19.025837"
           height="0.019528531"
           x="-103.28443"
           y="-246.64992"
           ry="0"
           transform="rotate(175.50011)" />
        <rect
           style="fill:#ffdd55;stroke:#387ca2;stroke-width:9.06899;stroke-linecap:round;stroke-linejoin:round;stroke-opacity:1"
           id="rect1-6-2-7-3"
           width="19.025837"
           height="0.019528531"
           x="76.024956"
           y="-212.87788"
           ry="0"
           transform="rotate(142.17549)" />
        <rect
           style="fill:none;stroke:#387ca2;stroke-width:9.06899;stroke-linecap:round;stroke-linejoin:round;stroke-opacity:1"
           id="rect1-7-5-5-8-6"
           width="19.025837"
           height="0.019528531"
           x="-244.83667"
           y="-17.328899"
           ry="0"
           transform="rotate(-112.59398)" />
        <rect
           style="fill:#ffdd55;stroke:#387ca2;stroke-width:9.06899;stroke-linecap:round;stroke-linejoin:round;stroke-opacity:1"
           id="rect1-6-2-7-4-0"
           width="19.025837"
           height="0.019528531"
           x="-168.68411"
           y="-98.035988"
           ry="0"
           transform="rotate(-145.72493)" />
        <rect
           style="fill:none;stroke:#387ca2;stroke-width:9.06899;stroke-linecap:round;stroke-linejoin:round;stroke-opacity:1"
           id="rect1-7-5-5-8-9-6"
           width="19.025837"
           height="0.019528531"
           x="-69.742493"
           y="188.61581"
           ry="0"
           transform="rotate(-40.494399)" />
        <rect
           style="fill:#387ca2;fill-opacity:1;stroke:none;stroke-width:0.320617"
           id="rect3-2"
           width="47.50296"
           height="54.719772"
           x="-68.560982"
           y="90.120018"
           mask="url(#mask4-9)"
           transform="rotate(71.672141,10.037582,295.81168)" />
        <rect
           style="fill:#387ca2;fill-opacity:1;stroke:none;stroke-width:0.320617"
           id="rect3-4"
           width="47.50296"
           height="54.719772"
           x="-68.560982"
           y="90.120018"
           mask="url(#mask4-1)"
           transform="rotate(144.09711,24.397396,215.76764)" />
        <rect
           style="fill:#387ca2;fill-opacity:1;stroke:none;stroke-width:0.320617"
           id="rect3-4-3"
           width="47.50296"
           height="54.719772"
           x="-68.560982"
           y="90.120018"
           mask="url(#mask4-1-3)"
           transform="rotate(-144.11992,32.903224,166.99833)" />
        <rect
           style="fill:#387ca2;fill-opacity:1;stroke:none;stroke-width:0.320617"
           id="rect3-4-3-7"
           width="47.50296"
           height="54.719772"
           x="-68.560982"
           y="90.120018"
           mask="url(#mask4-1-3-6)"
           transform="rotate(-71.864738,47.051373,87.684226)" />
      </g>
    </g>
  </g>
</svg>
